HIERARCHY
ROOT Hips
{
	OFFSET 0.000000 8.830580 0.000000
	CHANNELS 6 Xposition Yposition Zposition Zrotation Yrotation Xrotation 
	JOINT Spine
	{
		OFFSET 0.000000 0.010000 0.000000
		CHANNELS 3 Zrotation Yrotation Xrotation
		JOINT Spine1
		{
			OFFSET 0.000000 2.459130 0.000000
			CHANNELS 3 Zrotation Yrotation Xrotation
			JOINT Neck
			{
				OFFSET 0.000000 2.484630 0.000000
				CHANNELS 3 Zrotation Yrotation Xrotation
				JOINT Head_virtual
				{
					OFFSET 0.000000 0.000000 0.000000
					CHANNELS 3 Zrotation Yrotation Xrotation
					JOINT Head
					{
						OFFSET 0.000000 0.927525 0.000000
						CHANNELS 3 Zrotation Yrotation Xrotation
						End Site
						{
							OFFSET 0.000000 0.000000 0.000000
						}
					}
				}
				JOINT LeftUpArm_virtual
				{
					OFFSET 0.000000 0.000000 0.000000
					CHANNELS 3 Zrotation Yrotation Xrotation
					JOINT LeftUpArm
					{
						OFFSET 1.248820 0.000000 0.000000
						CHANNELS 3 Zrotation Yrotation Xrotation
						JOINT LeftForeArm
						{
							OFFSET 2.597580 0.000000 0.000000
							CHANNELS 3 Zrotation Yrotation Xrotation
							JOINT LeftHand
							{
								OFFSET 2.455420 0.000000 0.000000
								CHANNELS 3 Zrotation Yrotation Xrotation
								End Site
								{
									OFFSET 0.000000 0.000000 0.000000
								}
							}
						}
					}
				}
				JOINT RightUpArm_virtual
				{
					OFFSET -0.000000 -0.000000 -0.000000
					CHANNELS 3 Zrotation Yrotation Xrotation
					JOINT RightUpArm
					{
						OFFSET -1.248820 -0.000000 -0.000000
						CHANNELS 3 Zrotation Yrotation Xrotation
						JOINT RightForeArm
						{
							OFFSET -2.597580 -0.000000 -0.000000
							CHANNELS 3 Zrotation Yrotation Xrotation
							JOINT RightHand
							{
								OFFSET -2.455420 -0.000000 -0.000000
								CHANNELS 3 Zrotation Yrotation Xrotation
								End Site
								{
									OFFSET 0.000000 0.000000 0.000000
								}
							}
						}
					}
				}
			}
		}
	}
	JOINT LeftUpLeg
	{
		OFFSET 1.271939 0.000000 0.000000
		CHANNELS 3 Zrotation Yrotation Xrotation
		JOINT LeftLowLeg
		{
			OFFSET 0.000000 -4.342910 0.000000
			CHANNELS 3 Zrotation Yrotation Xrotation
			JOINT LeftFoot
			{
				OFFSET 0.000000 -4.487670 0.000000
				CHANNELS 3 Zrotation Yrotation Xrotation
				JOINT LeftToeBase
				{
					OFFSET 0.000000 0.000000 1.515070
					CHANNELS 3 Zrotation Yrotation Xrotation
					End Site
					{
						OFFSET 0.000000 0.000000 0.000000
					}
				}
			}
		}
	}
	JOINT RightUpLeg
	{
		OFFSET -1.271939 0.000000 0.000000
		CHANNELS 3 Zrotation Yrotation Xrotation
		JOINT RightLowLeg
		{
			OFFSET 0.000000 -4.342910 0.000000
			CHANNELS 3 Zrotation Yrotation Xrotation
			JOINT RightFoot
			{
				OFFSET 0.000000 -4.487670 0.000000
				CHANNELS 3 Zrotation Yrotation Xrotation
				JOINT RightToeBase
				{
					OFFSET 0.000000 0.000000 1.515070
					CHANNELS 3 Zrotation Yrotation Xrotation
					End Site
					{
						OFFSET 0.000000 0.000000 0.000000
					}
				}
			}
		}
	}
}
MOTION
Frames: 10
Frame Time: 0.041667
-18.712135 9.212946 45.753453 -175.978730 -1.288527 -173.863131 1.793729 -1.905852 -8.205420 0.977152 -2.131743 2.827949 0.000000 0.000000 0.000000 -3.460552 0.872238 -8.288408 6.558857 6.113709 -56.619379 0.360475 14.928100 -4.173930 -10.096100 -3.555530 -26.834101 0.000000 -21.057699 0.000000 28.614099 9.230230 26.922501 7.245660 -10.050100 -1.016870 7.825740 0.651799 -34.027901 0.000000 21.123301 0.000000 -14.660200 -3.537420 27.538601 5.988930 1.442663 -5.310738 0.000000 0.000000 7.254190 7.462225 0.705689 7.083170 0.000000 0.000000 -35.279800 -0.047281 6.052721 -3.240142 0.000000 0.000000 6.511010 8.203619 -7.221220 9.466841 0.000000 0.000000 -26.896200 
-18.712585 9.212891 45.752434 -175.980825 -1.281827 -173.847182 1.810924 -1.911676 -8.223218 0.957913 -2.141447 2.824744 0.000000 0.000000 0.000000 -3.474824 0.901425 -8.266400 6.526016 6.135024 -56.562023 0.345553 14.919500 -4.149910 -10.099100 -3.534870 -26.780899 0.000000 -21.075399 0.000000 28.571699 9.224290 26.896500 7.255360 -10.063700 -0.992022 7.849820 0.688290 -34.093700 0.000000 21.139099 0.000000 -14.678200 -3.486330 27.428301 5.984403 1.458382 -5.312156 0.000000 0.000000 7.241810 7.467574 0.694085 7.079982 0.000000 0.000000 -35.278299 -0.052758 6.012134 -3.241941 0.000000 0.000000 6.493950 8.196852 -7.183361 9.473282 0.000000 0.000000 -26.881800 
-18.712913 9.212859 45.751349 -175.982527 -1.281004 -173.836155 1.819535 -1.928426 -8.234616 0.953570 -2.159930 2.816333 0.000000 0.000000 0.000000 -3.493060 0.943400 -8.184515 6.492248 6.176604 -56.532945 0.315368 14.916600 -4.137180 -10.079800 -3.525780 -26.706301 0.000000 -21.023600 0.000000 28.577900 9.258760 26.855499 7.253330 -10.050400 -0.990043 7.877840 0.704757 -34.131599 0.000000 21.132401 0.000000 -14.700300 -3.449890 27.399200 5.980359 1.459462 -5.310338 0.000000 0.000000 7.230680 7.468150 0.695992 7.079065 0.000000 0.000000 -35.277901 -0.055038 6.001907 -3.232236 0.000000 0.000000 6.467420 8.188196 -7.182537 9.478749 0.000000 0.000000 -26.880900 
-18.713226 9.212627 45.750273 -175.984851 -1.272998 -173.832297 1.858491 -1.912799 -8.226295 0.876106 -2.153563 2.781126 0.000000 0.000000 0.000000 -3.439366 0.931153 -8.135356 6.476661 6.201830 -56.488772 0.359808 14.878000 -4.137680 -10.137300 -3.519350 -26.797100 0.000000 -21.003099 0.000000 28.558701 9.293400 26.895599 7.294450 -10.080800 -0.954004 7.895400 0.719277 -34.120300 0.000000 21.153900 0.000000 -14.676600 -3.497000 27.309000 5.975825 1.479670 -5.299852 0.000000 0.000000 7.220260 7.461207 0.683092 7.072385 0.000000 0.000000 -35.301800 -0.058425 5.988224 -3.224504 0.000000 0.000000 6.457560 8.177853 -7.168087 9.468425 0.000000 0.000000 -26.857400 
-18.713339 9.212404 45.749675 -175.987356 -1.246731 -173.839405 1.849495 -1.913240 -8.208687 0.893236 -2.151747 2.763240 0.000000 0.000000 0.000000 -3.499613 0.960011 -8.110033 6.532612 6.175282 -56.470668 0.366120 14.864500 -4.137730 -10.233800 -3.494080 -26.953300 0.000000 -21.019501 0.000000 28.589600 9.290490 26.859900 7.313540 -10.064800 -0.937535 7.879080 0.709360 -34.110802 0.000000 21.150900 0.000000 -14.700500 -3.462530 27.309999 5.969778 1.538099 -5.283919 0.000000 0.000000 7.224000 7.462006 0.647843 7.057744 0.000000 0.000000 -35.285400 -0.065235 6.015858 -3.231857 0.000000 0.000000 6.486340 8.198622 -7.157253 9.448752 0.000000 0.000000 -26.858200 
-18.713381 9.212301 45.749021 -175.986885 -1.223446 -173.853326 1.842835 -1.913471 -8.197732 0.907529 -2.150614 2.782542 0.000000 0.000000 0.000000 -3.506017 0.957768 -8.112336 6.517580 6.167900 -56.448574 0.351167 14.855800 -4.123320 -10.295900 -3.472720 -26.983101 0.000000 -21.018999 0.000000 28.630501 9.201910 26.839300 7.335990 -10.068300 -0.941974 7.881880 0.714835 -34.129700 0.000000 21.163799 0.000000 -14.740700 -3.488500 27.376900 5.967621 1.554451 -5.263633 0.000000 0.000000 7.231890 7.478281 0.660272 7.048860 0.000000 0.000000 -35.292400 -0.065555 6.105402 -3.231217 0.000000 0.000000 6.513430 8.202545 -7.221237 9.431302 0.000000 0.000000 -26.864600 
-18.713563 9.212294 45.748564 -175.984757 -1.206043 -173.875046 1.851807 -1.911803 -8.171960 0.896126 -2.151357 2.796533 0.000000 0.000000 0.000000 -3.503327 0.955320 -8.101311 6.497089 6.174044 -56.456200 0.340151 14.847500 -4.113900 -10.330900 -3.452130 -26.963499 0.000000 -21.025000 0.000000 28.521900 9.264910 26.756901 7.351870 -10.058200 -0.924813 7.903540 0.690912 -34.140499 0.000000 21.178200 0.000000 -14.687800 -3.508650 27.283100 5.969876 1.537124 -5.239231 0.000000 0.000000 7.242430 7.464675 0.683666 7.039114 0.000000 0.000000 -35.279800 -0.064888 6.100811 -3.219241 0.000000 0.000000 6.533710 8.219705 -7.192680 9.427295 0.000000 0.000000 -26.874500 
-18.713731 9.212227 45.748026 -175.988713 -1.200706 -173.881470 1.850675 -1.912727 -8.169183 0.892901 -2.152464 2.835382 0.000000 0.000000 0.000000 -3.505176 0.950721 -8.122732 6.501539 6.166260 -56.462980 0.318026 14.832700 -4.112740 -10.341800 -3.436510 -26.831301 0.000000 -20.951200 0.000000 28.533600 9.233980 26.758801 7.367380 -10.070600 -0.946937 7.911510 0.679950 -34.099701 0.000000 21.165100 0.000000 -14.666400 -3.510720 27.106100 5.965577 1.519872 -5.228785 0.000000 0.000000 7.245460 7.456960 0.702490 7.039172 0.000000 0.000000 -35.279100 -0.069668 6.105636 -3.208620 0.000000 0.000000 6.532310 8.218982 -7.189833 9.416962 0.000000 0.000000 -26.856000 
-18.713870 9.212176 45.747259 -175.992153 -1.201481 -173.883854 1.851366 -1.919753 -8.169557 0.883080 -2.160140 2.880519 0.000000 0.000000 0.000000 -3.459986 0.940237 -8.132034 6.399600 6.210200 -56.458144 0.297537 14.828200 -4.126590 -10.333100 -3.415580 -26.730000 0.000000 -20.889000 0.000000 28.501499 9.225000 26.814301 7.387990 -10.091600 -0.971252 7.913640 0.695178 -34.081299 0.000000 21.122200 0.000000 -14.665600 -3.523870 27.098499 5.963106 1.469769 -5.216991 0.000000 0.000000 7.237000 7.466110 0.750977 7.045388 0.000000 0.000000 -35.267599 -0.072780 6.115095 -3.196286 0.000000 0.000000 6.521780 8.207672 -7.201163 9.414599 0.000000 0.000000 -26.876200 
-18.713861 9.211884 45.746664 -175.992076 -1.196806 -173.870919 1.888370 -1.886025 -8.140760 0.798853 -2.135363 2.831077 0.000000 0.000000 0.000000 -3.386300 0.906824 -8.130216 6.411923 6.222795 -56.449408 0.352764 14.775100 -4.071860 -10.360200 -3.427960 -26.761400 0.000000 -20.823500 0.000000 28.485100 9.227320 26.785700 7.426080 -10.148400 -0.958213 7.934320 0.665629 -34.097500 0.000000 21.099300 0.000000 -14.652900 -3.537730 27.173401 5.962019 1.483777 -5.226908 0.000000 0.000000 7.241010 7.461187 0.745982 7.032859 0.000000 0.000000 -35.270399 -0.074015 6.093728 -3.209645 0.000000 0.000000 6.528280 8.225930 -7.174757 9.407625 0.000000 0.000000 -26.875900 
